STARTFONT 2.1
FONT -Monotype-Arial-Bold-I-Normal--18-180-75-75-P-111-iso8859-5
SIZE 18 75 75
FONTBOUNDINGBOX 24 22 -2 -4

STARTPROPERTIES 24
FOUNDRY "Monotype"
FAMILY_NAME "Arial"
WEIGHT_NAME "Bold"
SLANT "I"
SETWIDTH_NAME "Normal"
ADD_STYLE_NAME ""
PIXEL_SIZE 18
POINT_SIZE 180
RESOLUTION_X 75
RESOLUTION_Y 75
SPACING "P"
AVERAGE_WIDTH 111
CHARSET_REGISTRY "iso8859"
CHARSET_ENCODING "5"
FACE_NAME "Arial Bold Inclined ISO Latin Cyrillic"
_DEC_DEVICE_FONTNAMES "PS=arial-bin-latcyrillic"
COPYRIGHT "Copyright (c) 1994 Monotype Typography Ltd."
CAP_HEIGHT 15
X_HEIGHT 11
WEIGHT 10
QUAD_WIDTH 13
DEFAULT_CHAR 160
FONT_DESCENT 4
FONT_ASCENT 18
ENDPROPERTIES

CHARS 191

STARTCHAR space
ENCODING 32
SWIDTH 278 0
DWIDTH 5 0
BBX 0 0 0 0
BITMAP
ENDCHAR

STARTCHAR exclam
ENCODING 33
SWIDTH 333 0
DWIDTH 6 0
BBX 6 14 1 0
BITMAP
1C
1C
1C
38
38
30
30
70
60
60
00
E0
E0
E0
ENDCHAR

STARTCHAR quotedbl
ENCODING 34
SWIDTH 474 0
DWIDTH 9 0
BBX 7 5 3 9
BITMAP
EE
EE
EE
EE
CC
ENDCHAR

STARTCHAR numbersign
ENCODING 35
SWIDTH 556 0
DWIDTH 11 0
BBX 12 15 0 -1
BITMAP
0CC0
0CC0
0CC0
0CC0
7FF0
7FF0
1980
1980
1980
FFE0
FFE0
3300
3300
3300
3300
ENDCHAR

STARTCHAR dollar
ENCODING 36
SWIDTH 556 0
DWIDTH 11 0
BBX 10 18 1 -2
BITMAP
0200
0200
0F00
1F80
3DC0
34C0
3400
3C00
1E00
0F00
0B80
0980
C980
EB80
7F00
3E00
1800
1000
ENDCHAR

STARTCHAR percent
ENCODING 37
SWIDTH 889 0
DWIDTH 17 0
BBX 14 15 2 -1
BITMAP
3818
7C30
6C60
CCC0
CCC0
D980
FB00
7638
0C7C
0C6C
18CC
30CC
60D8
C0F8
0070
ENDCHAR

STARTCHAR ampersand
ENCODING 38
SWIDTH 722 0
DWIDTH 14 0
BBX 12 14 2 0
BITMAP
0780
0FC0
1CC0
19C0
1D80
1F00
3E00
7F00
7720
E3F0
E1E0
F3C0
7FF0
3E60
ENDCHAR

STARTCHAR quoteright
ENCODING 39
SWIDTH 278 0
DWIDTH 5 0
BBX 4 6 2 8
BITMAP
70
70
70
20
60
C0
ENDCHAR

STARTCHAR parenleft
ENCODING 40
SWIDTH 333 0
DWIDTH 6 0
BBX 7 18 1 -4
BITMAP
06
0C
18
30
30
60
60
E0
C0
C0
C0
C0
C0
C0
C0
60
60
30
ENDCHAR

STARTCHAR parenright
ENCODING 41
SWIDTH 333 0
DWIDTH 6 0
BBX 7 18 -2 -4
BITMAP
18
0C
0C
06
06
06
06
06
06
06
0E
0C
0C
18
18
30
60
C0
ENDCHAR

STARTCHAR asterisk
ENCODING 42
SWIDTH 389 0
DWIDTH 7 0
BBX 7 7 2 7
BITMAP
10
30
FE
7C
38
6C
44
ENDCHAR

STARTCHAR plus
ENCODING 43
SWIDTH 584 0
DWIDTH 11 0
BBX 10 10 1 2
BITMAP
0C00
0C00
0C00
0C00
FFC0
FFC0
0C00
0C00
0C00
0C00
ENDCHAR

STARTCHAR comma
ENCODING 44
SWIDTH 278 0
DWIDTH 5 0
BBX 4 6 0 -3
BITMAP
70
70
70
20
60
C0
ENDCHAR

STARTCHAR minus
ENCODING 45
SWIDTH 584 0
DWIDTH 11 0
BBX 9 2 2 6
BITMAP
FF80
FF80
ENDCHAR

STARTCHAR period
ENCODING 46
SWIDTH 278 0
DWIDTH 5 0
BBX 3 3 1 0
BITMAP
E0
E0
E0
ENDCHAR

STARTCHAR slash
ENCODING 47
SWIDTH 278 0
DWIDTH 5 0
BBX 5 14 1 0
BITMAP
18
18
18
30
30
30
30
60
60
60
60
C0
C0
C0
ENDCHAR

STARTCHAR zero
ENCODING 48
SWIDTH 556 0
DWIDTH 11 0
BBX 10 14 1 0
BITMAP
0700
1F80
3BC0
71C0
71C0
E1C0
E1C0
E1C0
E1C0
E380
E380
7700
7E00
3800
ENDCHAR

STARTCHAR one
ENCODING 49
SWIDTH 556 0
DWIDTH 11 0
BBX 8 14 2 0
BITMAP
03
07
1F
3E
66
CE
0E
0C
1C
1C
1C
38
38
38
ENDCHAR

STARTCHAR two
ENCODING 50
SWIDTH 556 0
DWIDTH 11 0
BBX 10 14 1 0
BITMAP
1F00
3F80
71C0
61C0
01C0
0380
0380
0700
0E00
1C00
3800
7000
FF80
FF80
ENDCHAR

STARTCHAR three
ENCODING 51
SWIDTH 556 0
DWIDTH 11 0
BBX 10 14 1 0
BITMAP
0F00
1F80
39C0
31C0
01C0
0380
0F00
0F00
0380
0380
E380
E700
7F00
3C00
ENDCHAR

STARTCHAR four
ENCODING 52
SWIDTH 556 0
DWIDTH 11 0
BBX 10 14 1 0
BITMAP
01C0
03C0
07C0
0F80
0F80
1D80
3B00
7300
E300
FFC0
FF80
0600
0600
0600
ENDCHAR

STARTCHAR five
ENCODING 53
SWIDTH 556 0
DWIDTH 11 0
BBX 9 14 2 0
BITMAP
3F80
3F80
3800
7000
7000
7E00
FF00
E780
0380
0380
C380
E700
7F00
3C00
ENDCHAR

STARTCHAR six
ENCODING 54
SWIDTH 556 0
DWIDTH 11 0
BBX 9 14 1 0
BITMAP
0700
1F80
3980
7000
7C00
FF00
F300
E380
E380
E380
E380
E700
7F00
3C00
ENDCHAR

STARTCHAR seven
ENCODING 55
SWIDTH 556 0
DWIDTH 11 0
BBX 10 14 2 0
BITMAP
FFC0
FF80
0300
0600
0E00
0C00
1C00
1800
3800
3800
3000
7000
7000
7000
ENDCHAR

STARTCHAR eight
ENCODING 56
SWIDTH 556 0
DWIDTH 11 0
BBX 10 14 1 0
BITMAP
0F00
1F80
39C0
31C0
39C0
1F80
3F00
7380
E380
E380
E300
F700
7E00
3C00
ENDCHAR

STARTCHAR nine
ENCODING 57
SWIDTH 556 0
DWIDTH 11 0
BBX 9 14 2 0
BITMAP
0E00
3F00
7300
7380
E380
E380
E380
E780
7F80
3B80
0300
C700
FE00
7800
ENDCHAR

STARTCHAR colon
ENCODING 58
SWIDTH 333 0
DWIDTH 6 0
BBX 5 10 1 0
BITMAP
38
38
38
00
00
00
00
E0
E0
E0
ENDCHAR

STARTCHAR semicolon
ENCODING 59
SWIDTH 333 0
DWIDTH 6 0
BBX 6 13 0 -3
BITMAP
1C
1C
1C
00
00
00
00
70
70
70
20
60
C0
ENDCHAR

STARTCHAR less
ENCODING 60
SWIDTH 584 0
DWIDTH 11 0
BBX 9 9 2 2
BITMAP
0380
0F80
3E00
F800
E000
F800
3E00
0F80
0380
ENDCHAR

STARTCHAR equal
ENCODING 61
SWIDTH 584 0
DWIDTH 11 0
BBX 9 6 2 4
BITMAP
FF80
FF80
0000
0000
FF80
FF80
ENDCHAR

STARTCHAR greater
ENCODING 62
SWIDTH 584 0
DWIDTH 11 0
BBX 9 9 2 2
BITMAP
E000
F800
3E00
0F80
0380
0F80
3E00
F800
E000
ENDCHAR

STARTCHAR question
ENCODING 63
SWIDTH 611 0
DWIDTH 12 0
BBX 9 14 3 0
BITMAP
3E00
7F00
E380
E380
0380
0F00
1E00
3C00
3800
3800
0000
7000
7000
7000
ENDCHAR

STARTCHAR at
ENCODING 64
SWIDTH 975 0
DWIDTH 19 0
BBX 18 18 0 -4
BITMAP
03F800
0FFE00
1C0700
300180
61CD80
63FCC0
C73CC0
CE18C0
CC18C0
CC1980
CC3980
CE7B00
67FE00
63BC00
3000C0
1C0380
0FFF00
03FC00
ENDCHAR

STARTCHAR A
ENCODING 65
SWIDTH 722 0
DWIDTH 13 0
BBX 11 14 0 0
BITMAP
00E0
01E0
01E0
03E0
07E0
07E0
0EE0
1CE0
1CE0
3FE0
7FE0
70E0
E0E0
E0E0
ENDCHAR

STARTCHAR B
ENCODING 66
SWIDTH 722 0
DWIDTH 14 0
BBX 13 14 1 0
BITMAP
1FE0
1FF0
1C78
3838
3838
38F0
3FC0
7FE0
7070
7070
E070
E0F0
FFE0
FF80
ENDCHAR

STARTCHAR C
ENCODING 67
SWIDTH 722 0
DWIDTH 14 0
BBX 12 14 2 0
BITMAP
07C0
1FE0
3CF0
7830
7000
F000
E000
E000
E000
E060
E0E0
73C0
7F80
1E00
ENDCHAR

STARTCHAR D
ENCODING 68
SWIDTH 722 0
DWIDTH 14 0
BBX 13 14 1 0
BITMAP
1FE0
1FF0
1C70
3838
3838
3838
3838
7038
7078
7070
E0F0
E3E0
FFC0
FF00
ENDCHAR

STARTCHAR E
ENCODING 69
SWIDTH 667 0
DWIDTH 13 0
BBX 13 14 1 0
BITMAP
1FF8
1FF8
1C00
3800
3800
3800
3FE0
7FE0
7000
7000
E000
E000
FFC0
FFC0
ENDCHAR

STARTCHAR F
ENCODING 70
SWIDTH 611 0
DWIDTH 12 0
BBX 12 14 1 0
BITMAP
1FF0
1FF0
1C00
3800
3800
3800
3FC0
7FC0
7000
7000
E000
E000
E000
E000
ENDCHAR

STARTCHAR G
ENCODING 71
SWIDTH 778 0
DWIDTH 15 0
BBX 13 14 2 0
BITMAP
07E0
1FF0
3C78
7818
7000
F000
E000
E1F8
E1F8
E038
E070
70F0
7FE0
1F80
ENDCHAR

STARTCHAR H
ENCODING 72
SWIDTH 722 0
DWIDTH 14 0
BBX 14 14 1 0
BITMAP
1C1C
1C1C
1C1C
3838
3838
3838
3FF8
7FF0
7070
7070
E0E0
E0E0
E0E0
E0E0
ENDCHAR

STARTCHAR I
ENCODING 73
SWIDTH 278 0
DWIDTH 6 0
BBX 6 14 1 0
BITMAP
1C
1C
1C
38
38
38
38
70
70
70
E0
E0
E0
E0
ENDCHAR

STARTCHAR J
ENCODING 74
SWIDTH 556 0
DWIDTH 11 0
BBX 12 14 0 0
BITMAP
0070
0070
0070
00E0
00E0
00E0
00E0
01C0
01C0
01C0
C380
E780
7F00
3E00
ENDCHAR

STARTCHAR K
ENCODING 75
SWIDTH 722 0
DWIDTH 14 0
BBX 13 14 1 0
BITMAP
1C38
1C70
1CE0
39C0
3B80
3F00
3F80
7B80
79C0
71C0
E0E0
E0E0
E070
E070
ENDCHAR

STARTCHAR L
ENCODING 76
SWIDTH 611 0
DWIDTH 12 0
BBX 10 14 1 0
BITMAP
1C00
1C00
1C00
3800
3800
3800
3800
7000
7000
7000
E000
E000
FFC0
FFC0
ENDCHAR

STARTCHAR M
ENCODING 77
SWIDTH 833 0
DWIDTH 17 0
BBX 17 14 1 0
BITMAP
1E0F80
1E1F80
1E1F80
3E3F00
3E3700
3E7700
3E6700
76EE00
76CE00
77CE00
E79C00
E79C00
E71C00
E71C00
ENDCHAR

STARTCHAR N
ENCODING 78
SWIDTH 722 0
DWIDTH 14 0
BBX 14 14 1 0
BITMAP
1C1C
1C1C
1E1C
3E38
3E38
3638
3738
7370
7370
73F0
E1F0
E1E0
E0E0
E0E0
ENDCHAR

STARTCHAR O
ENCODING 79
SWIDTH 778 0
DWIDTH 15 0
BBX 13 14 2 0
BITMAP
07C0
1FF0
3C70
7838
7038
F038
E038
E038
E078
E070
E0F0
71E0
7FC0
1F00
ENDCHAR

STARTCHAR P
ENCODING 80
SWIDTH 667 0
DWIDTH 13 0
BBX 12 14 1 0
BITMAP
1FE0
1FF0
1C70
3870
3870
38E0
3FE0
7F80
7000
7000
E000
E000
E000
E000
ENDCHAR

STARTCHAR Q
ENCODING 81
SWIDTH 778 0
DWIDTH 15 0
BBX 13 16 2 -2
BITMAP
07C0
1FF0
3C70
7838
7038
E038
E038
E038
E038
E270
E7F0
7BE0
7FC0
1FE0
0070
0020
ENDCHAR

STARTCHAR R
ENCODING 82
SWIDTH 722 0
DWIDTH 14 0
BBX 13 14 1 0
BITMAP
1FF0
1FF8
1C38
3838
3870
38F0
3FE0
7F80
7380
71C0
E1E0
E0E0
E070
E070
ENDCHAR

STARTCHAR S
ENCODING 83
SWIDTH 667 0
DWIDTH 13 0
BBX 11 14 2 0
BITMAP
0F80
3FC0
38E0
7060
7060
3C00
3F00
0F80
03C0
C1C0
C1C0
E380
7F80
3E00
ENDCHAR

STARTCHAR T
ENCODING 84
SWIDTH 611 0
DWIDTH 12 0
BBX 12 14 2 0
BITMAP
FFF0
FFF0
0700
0700
0E00
0E00
0E00
1C00
1C00
1C00
1C00
3800
3800
3800
ENDCHAR

STARTCHAR U
ENCODING 85
SWIDTH 722 0
DWIDTH 14 0
BBX 13 14 2 0
BITMAP
3838
3838
3838
7070
7070
7070
7070
E0E0
E0E0
E0E0
E1C0
73C0
7F80
3E00
ENDCHAR

STARTCHAR V
ENCODING 86
SWIDTH 667 0
DWIDTH 11 0
BBX 11 14 2 0
BITMAP
E0E0
E1C0
E1C0
E380
E380
E700
E700
EE00
EE00
FC00
FC00
F800
F800
F000
ENDCHAR

STARTCHAR W
ENCODING 87
SWIDTH 944 0
DWIDTH 18 0
BBX 18 14 2 0
BITMAP
E0E0C0
E1E1C0
E1E180
E3E380
E3E300
E7E700
E6E600
EEEE00
ECEC00
FCFC00
F8F800
F8F800
F0F000
F0F000
ENDCHAR

STARTCHAR X
ENCODING 88
SWIDTH 667 0
DWIDTH 13 0
BBX 16 14 -1 0
BITMAP
1C0F
1C1E
0E3C
0E78
07F0
07E0
03C0
03C0
07E0
0FE0
1E70
3C70
7838
F038
ENDCHAR

STARTCHAR Y
ENCODING 89
SWIDTH 667 0
DWIDTH 13 0
BBX 13 14 2 0
BITMAP
E038
7078
70F0
39E0
3BC0
1F80
1F00
0E00
0E00
0E00
1C00
1C00
1C00
1C00
ENDCHAR

STARTCHAR Z
ENCODING 90
SWIDTH 611 0
DWIDTH 12 0
BBX 13 14 0 0
BITMAP
1FF8
1FF8
0070
00E0
01C0
0380
0700
0700
0E00
1C00
3800
7000
FFE0
FFE0
ENDCHAR

STARTCHAR bracketleft
ENCODING 91
SWIDTH 333 0
DWIDTH 6 0
BBX 8 17 0 -3
BITMAP
1F
1F
1C
1C
38
38
38
38
38
70
70
70
70
E0
E0
F8
F8
ENDCHAR

STARTCHAR backslash
ENCODING 92
SWIDTH 278 0
DWIDTH 5 0
BBX 5 14 1 0
BITMAP
C0
C0
C0
60
60
60
60
30
30
30
30
18
18
18
ENDCHAR

STARTCHAR bracketright
ENCODING 93
SWIDTH 333 0
DWIDTH 6 0
BBX 8 17 -1 -3
BITMAP
1F
1F
07
07
0E
0E
0E
0E
1C
1C
1C
1C
1C
38
38
F8
F8
ENDCHAR

STARTCHAR asciicircum
ENCODING 94
SWIDTH 584 0
DWIDTH 11 0
BBX 9 8 2 6
BITMAP
1C00
1C00
3E00
3E00
7700
7700
E380
E380
ENDCHAR

STARTCHAR underscore
ENCODING 95
SWIDTH 556 0
DWIDTH 11 0
BBX 11 1 0 -2
BITMAP
FFE0
ENDCHAR

STARTCHAR quoteleft
ENCODING 96
SWIDTH 278 0
DWIDTH 5 0
BBX 4 6 2 8
BITMAP
30
60
40
E0
E0
E0
ENDCHAR

STARTCHAR a
ENCODING 97
SWIDTH 556 0
DWIDTH 11 0
BBX 10 10 1 0
BITMAP
1F80
3FC0
71C0
01C0
1FC0
7FC0
E380
E780
FF80
7B80
ENDCHAR

STARTCHAR b
ENCODING 98
SWIDTH 611 0
DWIDTH 12 0
BBX 11 14 1 0
BITMAP
1C00
1C00
1C00
1C00
3B80
3FC0
38E0
38E0
70E0
70E0
70C0
79C0
FF80
EE00
ENDCHAR

STARTCHAR c
ENCODING 99
SWIDTH 556 0
DWIDTH 11 0
BBX 10 10 1 0
BITMAP
0F80
3FC0
78C0
7000
E000
E000
E180
F780
7F00
3C00
ENDCHAR

STARTCHAR d
ENCODING 100
SWIDTH 611 0
DWIDTH 12 0
BBX 12 14 1 0
BITMAP
0070
0070
0070
00E0
1EE0
3FE0
71E0
61C0
E1C0
E1C0
E380
F380
7F80
3D80
ENDCHAR

STARTCHAR e
ENCODING 101
SWIDTH 556 0
DWIDTH 11 0
BBX 10 10 1 0
BITMAP
0F00
3F80
71C0
61C0
FFC0
FFC0
E000
F1C0
7F80
3F00
ENDCHAR

STARTCHAR f
ENCODING 102
SWIDTH 333 0
DWIDTH 6 0
BBX 8 14 1 0
BITMAP
0F
1F
38
38
FE
FE
38
70
70
70
E0
E0
E0
E0
ENDCHAR

STARTCHAR g
ENCODING 103
SWIDTH 611 0
DWIDTH 12 0
BBX 11 14 1 -4
BITMAP
0EE0
3FE0
73E0
61C0
E1C0
E1C0
E1C0
F380
7F80
3B80
0300
CF00
FE00
7800
ENDCHAR

STARTCHAR h
ENCODING 104
SWIDTH 611 0
DWIDTH 12 0
BBX 11 14 1 0
BITMAP
1C00
1C00
1C00
1C00
3BC0
3FE0
3CE0
38E0
71C0
71C0
71C0
E380
E380
E380
ENDCHAR

STARTCHAR i
ENCODING 105
SWIDTH 278 0
DWIDTH 6 0
BBX 6 14 1 0
BITMAP
1C
1C
1C
00
38
38
38
70
70
70
70
E0
E0
E0
ENDCHAR

STARTCHAR j
ENCODING 106
SWIDTH 278 0
DWIDTH 6 0
BBX 9 18 -2 -4
BITMAP
0380
0380
0380
0000
0700
0700
0700
0E00
0E00
0E00
0E00
1C00
1C00
1C00
1C00
3800
F800
F000
ENDCHAR

STARTCHAR k
ENCODING 107
SWIDTH 556 0
DWIDTH 11 0
BBX 10 14 1 0
BITMAP
1C00
1C00
1C00
3800
39C0
3B80
3700
7E00
7C00
7C00
EE00
E700
E380
E1C0
ENDCHAR

STARTCHAR l
ENCODING 108
SWIDTH 278 0
DWIDTH 6 0
BBX 6 14 1 0
BITMAP
1C
1C
1C
38
38
38
38
70
70
70
E0
E0
E0
E0
ENDCHAR

STARTCHAR m
ENCODING 109
SWIDTH 889 0
DWIDTH 16 0
BBX 15 10 1 0
BITMAP
3BBC
3FFE
39CE
71CE
739C
739C
739C
E738
E738
E738
ENDCHAR

STARTCHAR n
ENCODING 110
SWIDTH 611 0
DWIDTH 12 0
BBX 11 10 1 0
BITMAP
3BC0
3FE0
3CE0
78E0
71C0
71C0
71C0
E380
E380
E380
ENDCHAR

STARTCHAR o
ENCODING 111
SWIDTH 611 0
DWIDTH 12 0
BBX 11 10 1 0
BITMAP
0F80
3FC0
71E0
60E0
E0E0
E0E0
E0C0
F1C0
7F80
3E00
ENDCHAR

STARTCHAR p
ENCODING 112
SWIDTH 611 0
DWIDTH 12 0
BBX 12 14 0 -4
BITMAP
1DC0
1FE0
1EF0
3C70
3870
3870
3870
78E0
7FC0
7700
7000
E000
E000
E000
ENDCHAR

STARTCHAR q
ENCODING 113
SWIDTH 611 0
DWIDTH 12 0
BBX 11 14 1 -4
BITMAP
0EE0
3FE0
73E0
61C0
E1C0
E1C0
E1C0
E380
7F80
3B80
0380
0700
0700
0700
ENDCHAR

STARTCHAR r
ENCODING 114
SWIDTH 389 0
DWIDTH 7 0
BBX 8 10 1 0
BITMAP
3B
3F
3F
78
70
70
60
E0
E0
E0
ENDCHAR

STARTCHAR s
ENCODING 115
SWIDTH 556 0
DWIDTH 10 0
BBX 10 10 1 0
BITMAP
1F00
3F80
71C0
7800
3E00
1F00
0780
E380
7F00
3E00
ENDCHAR

STARTCHAR t
ENCODING 116
SWIDTH 333 0
DWIDTH 6 0
BBX 6 13 1 0
BITMAP
08
38
38
FC
FC
70
70
70
E0
E0
E0
F8
70
ENDCHAR

STARTCHAR u
ENCODING 117
SWIDTH 611 0
DWIDTH 12 0
BBX 11 10 1 0
BITMAP
38E0
38E0
38E0
71C0
71C0
71C0
E3C0
E780
FF80
7B80
ENDCHAR

STARTCHAR v
ENCODING 118
SWIDTH 556 0
DWIDTH 11 0
BBX 10 10 2 0
BITMAP
E1C0
E380
E700
E600
EE00
FC00
F800
F800
F000
E000
ENDCHAR

STARTCHAR w
ENCODING 119
SWIDTH 778 0
DWIDTH 15 0
BBX 15 10 1 0
BITMAP
E3C6
E3CC
E7CC
E7D8
EDD8
FDF0
F9F0
F1E0
F1E0
E1C0
ENDCHAR

STARTCHAR x
ENCODING 120
SWIDTH 556 0
DWIDTH 11 0
BBX 12 10 0 0
BITMAP
3870
38E0
1DC0
1F80
0F00
0F00
1F80
3B80
71C0
E1C0
ENDCHAR

STARTCHAR y
ENCODING 121
SWIDTH 556 0
DWIDTH 10 0
BBX 11 14 -1 -4
BITMAP
3860
38E0
38C0
19C0
1D80
1F80
0F00
0F00
0E00
1E00
1C00
3800
F800
E000
ENDCHAR

STARTCHAR z
ENCODING 122
SWIDTH 500 0
DWIDTH 9 0
BBX 10 10 0 0
BITMAP
3FC0
3FC0
0380
0700
0E00
1C00
3800
7000
FF00
FF00
ENDCHAR

STARTCHAR braceleft
ENCODING 123
SWIDTH 389 0
DWIDTH 7 0
BBX 8 18 1 -4
BITMAP
07
0F
0C
18
18
18
30
F0
E0
F0
30
30
60
60
60
60
78
38
ENDCHAR

STARTCHAR bar
ENCODING 124
SWIDTH 280 0
DWIDTH 5 0
BBX 2 18 2 -4
BITMAP
C0
C0
C0
C0
C0
C0
C0
C0
C0
C0
C0
C0
C0
C0
C0
C0
C0
C0
ENDCHAR

STARTCHAR braceright
ENCODING 125
SWIDTH 389 0
DWIDTH 7 0
BBX 8 18 -1 -4
BITMAP
1C
1E
06
06
06
06
0C
0C
0F
07
0F
0C
18
18
18
30
F0
E0
ENDCHAR

STARTCHAR asciitilde
ENCODING 126
SWIDTH 584 0
DWIDTH 11 0
BBX 10 3 1 5
BITMAP
7E40
FFC0
C780
ENDCHAR

STARTCHAR space
ENCODING 160
SWIDTH 278 0
DWIDTH 6 0
BBX 0 0 0 0
BITMAP
ENDCHAR

STARTCHAR afii10023
ENCODING 161
SWIDTH 667 0
DWIDTH 13 0
BBX 13 17 1 0
BITMAP
0E70
0E70
0000
1FF8
1FF8
1C00
3800
3800
3800
3FE0
7FE0
7000
7000
E000
E000
FFC0
FFC0
ENDCHAR

STARTCHAR afii10051
ENCODING 162
SWIDTH 886 0
DWIDTH 17 0
BBX 14 14 2 0
BITMAP
FFE0
FFE0
0E00
0E00
1C00
1DF0
1FF8
3E3C
381C
381C
381C
7038
71F0
71E0
ENDCHAR

STARTCHAR afii10052
ENCODING 163
SWIDTH 627 0
DWIDTH 12 0
BBX 13 18 1 0
BITMAP
01C0
0180
0300
0000
1FF8
1FF8
1C00
3800
3800
3800
3800
7000
7000
7000
E000
E000
E000
E000
ENDCHAR

STARTCHAR afii10053
ENCODING 164
SWIDTH 719 0
DWIDTH 14 0
BBX 13 14 1 0
BITMAP
07C0
1FF0
3C78
7818
7000
E000
FF00
FF00
E000
E030
7070
79E0
3FC0
0F00
ENDCHAR

STARTCHAR afii10054
ENCODING 165
SWIDTH 667 0
DWIDTH 13 0
BBX 11 14 2 0
BITMAP
0F80
3FC0
38E0
7060
7060
3C00
3F00
0F80
03C0
C1C0
C1C0
E380
7F80
3E00
ENDCHAR

STARTCHAR afii10055
ENCODING 166
SWIDTH 278 0
DWIDTH 5 0
BBX 6 14 1 0
BITMAP
1C
1C
1C
38
38
38
38
70
70
70
E0
E0
E0
E0
ENDCHAR

STARTCHAR afii10056
ENCODING 167
SWIDTH 278 0
DWIDTH 5 0
BBX 9 17 1 0
BITMAP
7380
7380
0000
1C00
1C00
1C00
3800
3800
3800
3800
7000
7000
7000
E000
E000
E000
E000
ENDCHAR

STARTCHAR afii10057
ENCODING 168
SWIDTH 556 0
DWIDTH 11 0
BBX 12 14 0 0
BITMAP
0070
0070
0070
00E0
00E0
00E0
00E0
01C0
01C0
01C0
C380
E780
7F00
3E00
ENDCHAR

STARTCHAR afii10058
ENCODING 169
SWIDTH 1125 0
DWIDTH 21 0
BBX 21 14 0 0
BITMAP
07FE00
07FE00
070E00
0E1C00
0E1C00
0E1C00
0E1FC0
1C3FF0
1C3878
1C3838
387038
387070
F07FF0
E07FC0
ENDCHAR

STARTCHAR afii10059
ENCODING 170
SWIDTH 1042 0
DWIDTH 20 0
BBX 19 14 1 0
BITMAP
1C3800
1C3800
1C3800
387000
387000
387000
3FFF80
7FFFC0
70E1E0
70E0E0
70E0E0
E1C1E0
E1FFC0
E1FF00
ENDCHAR

STARTCHAR afii10060
ENCODING 171
SWIDTH 861 0
DWIDTH 16 0
BBX 13 14 2 0
BITMAP
FFC0
FFC0
0E00
1C00
1C00
1FE0
1FF0
3878
3838
3838
3838
7070
7070
7070
ENDCHAR

STARTCHAR afii10061
ENCODING 172
SWIDTH 644 0
DWIDTH 12 0
BBX 13 18 1 0
BITMAP
01C0
0180
0300
0000
1C38
1C78
1CE0
1CC0
39C0
3B80
3E00
7700
7380
7180
71C0
E1C0
E1C0
E0E0
ENDCHAR

STARTCHAR hyphen
ENCODING 173
SWIDTH 333 0
DWIDTH 6 0
BBX 6 3 0 3
BITMAP
7C
FC
F8
ENDCHAR

STARTCHAR afii10062
ENCODING 174
SWIDTH 677 0
DWIDTH 13 0
BBX 14 17 1 0
BITMAP
0660
03C0
0000
703C
7038
3870
38E0
38E0
19C0
1D80
1F00
0F00
0E00
0C00
1C00
F800
F000
ENDCHAR

STARTCHAR afii10145
ENCODING 175
SWIDTH 722 0
DWIDTH 14 0
BBX 14 18 1 -4
BITMAP
1C1C
1C1C
1C1C
3838
3838
3838
3838
7070
7070
7070
E0E0
E0E0
FFE0
FFE0
0E00
0E00
1C00
1C00
ENDCHAR

STARTCHAR afii10017
ENCODING 176
SWIDTH 722 0
DWIDTH 14 0
BBX 11 14 1 0
BITMAP
00E0
01E0
01E0
03E0
07E0
07E0
0EE0
1CE0
1CE0
3FE0
7FE0
70E0
E0E0
E0E0
ENDCHAR

STARTCHAR afii10018
ENCODING 177
SWIDTH 708 0
DWIDTH 13 0
BBX 12 14 1 0
BITMAP
1FF0
1FF0
1C00
3800
3800
3FC0
3FE0
70F0
7070
7070
7070
E0E0
FFE0
FF80
ENDCHAR

STARTCHAR afii10019
ENCODING 178
SWIDTH 722 0
DWIDTH 14 0
BBX 13 14 1 0
BITMAP
1FE0
1FF0
1C78
3838
3838
38F0
3FC0
7FE0
7070
7070
E070
E0F0
FFE0
FF80
ENDCHAR

STARTCHAR afii10020
ENCODING 179
SWIDTH 627 0
DWIDTH 12 0
BBX 12 14 1 0
BITMAP
1FF0
1FF0
1C00
3800
3800
3800
3800
7000
7000
7000
7000
E000
E000
E000
ENDCHAR

STARTCHAR afii10021
ENCODING 180
SWIDTH 722 0
DWIDTH 14 0
BBX 16 18 -2 -4
BITMAP
03FF
03FF
0387
038E
070E
070E
070E
0E0E
0E1C
0E1C
1C1C
1C1E
7FFE
7FFE
601C
601C
E01C
C01C
ENDCHAR

STARTCHAR afii10022
ENCODING 181
SWIDTH 667 0
DWIDTH 13 0
BBX 13 14 1 0
BITMAP
1FF8
1FF8
1C00
3800
3800
3800
3FE0
7FE0
7000
7000
E000
E000
FFC0
FFC0
ENDCHAR

STARTCHAR afii10024
ENCODING 182
SWIDTH 927 0
DWIDTH 18 0
BBX 20 14 -1 0
BITMAP
1C38F0
1E39F0
063980
067380
077300
077700
01FC00
07EE00
0EE700
1CE700
3CE380
39C380
71C3C0
F1C1C0
ENDCHAR

STARTCHAR afii10025
ENCODING 183
SWIDTH 642 0
DWIDTH 12 0
BBX 12 14 0 0
BITMAP
0780
1FE0
3CF0
3070
0070
00E0
0780
07C0
01E0
00E0
C0E0
F1E0
7FC0
3F00
ENDCHAR

STARTCHAR afii10026
ENCODING 184
SWIDTH 722 0
DWIDTH 14 0
BBX 14 14 1 0
BITMAP
1C0C
1C1C
1C3C
1C7C
38F8
39F8
3BB8
7738
7E70
7C70
7870
F0E0
E0E0
C0E0
ENDCHAR

STARTCHAR afii10027
ENCODING 185
SWIDTH 722 0
DWIDTH 14 0
BBX 14 17 1 0
BITMAP
0330
01E0
0000
1C0C
1C1C
1C3C
1C7C
38F8
39F8
3BB8
7738
7E70
7C70
7870
F0E0
E0E0
C0E0
ENDCHAR

STARTCHAR afii10028
ENCODING 186
SWIDTH 644 0
DWIDTH 12 0
BBX 13 14 1 0
BITMAP
1C38
1C78
1CE0
38C0
39C0
3B80
3E00
7700
7380
7180
E1C0
E1C0
E0C0
E0E0
ENDCHAR

STARTCHAR afii10029
ENCODING 187
SWIDTH 722 0
DWIDTH 14 0
BBX 15 14 0 0
BITMAP
07FE
07FE
070E
070E
0E1C
0E1C
0E1C
1C38
1C38
1C38
1C38
3870
F870
F070
ENDCHAR

STARTCHAR afii10030
ENCODING 188
SWIDTH 833 0
DWIDTH 17 0
BBX 17 14 1 0
BITMAP
1E0F80
1E1F80
1E1F80
3E3F00
3E3700
3E7700
3E6700
76EE00
76CE00
77CE00
E79C00
E79C00
E71C00
E71C00
ENDCHAR

STARTCHAR afii10031
ENCODING 189
SWIDTH 722 0
DWIDTH 14 0
BBX 14 14 1 0
BITMAP
1C1C
1C1C
1C1C
3838
3838
3838
3FF8
7FF0
7070
7070
E0E0
E0E0
E0E0
E0E0
ENDCHAR

STARTCHAR afii10032
ENCODING 190
SWIDTH 778 0
DWIDTH 15 0
BBX 13 14 2 0
BITMAP
07C0
1FF0
3C70
7838
7038
F038
E038
E038
E078
E070
E0F0
71E0
7FC0
1F00
ENDCHAR

STARTCHAR afii10033
ENCODING 191
SWIDTH 722 0
DWIDTH 14 0
BBX 14 14 1 0
BITMAP
1FFC
1FFC
1C1C
1C1C
3838
3838
3838
7070
7070
7070
7070
E0E0
E0E0
E0E0
ENDCHAR

STARTCHAR afii10034
ENCODING 192
SWIDTH 667 0
DWIDTH 13 0
BBX 13 14 1 0
BITMAP
1FE0
1FF0
1C38
3838
3838
3870
3FF0
7FC0
7000
7000
E000
E000
E000
E000
ENDCHAR

STARTCHAR afii10035
ENCODING 193
SWIDTH 722 0
DWIDTH 14 0
BBX 12 14 2 0
BITMAP
07C0
1FE0
3CF0
7870
7000
E000
E000
E000
E000
E070
E0F0
71E0
7FC0
1F00
ENDCHAR

STARTCHAR afii10036
ENCODING 194
SWIDTH 611 0
DWIDTH 12 0
BBX 12 14 2 0
BITMAP
FFF0
FFF0
0700
0700
0E00
0E00
0E00
1C00
1C00
1C00
1C00
3800
3800
3800
ENDCHAR

STARTCHAR afii10037
ENCODING 195
SWIDTH 677 0
DWIDTH 13 0
BBX 14 14 1 0
BITMAP
703C
7038
3870
38E0
38E0
19C0
1D80
1F00
0F00
0E00
0C00
1C00
F800
F000
ENDCHAR

STARTCHAR afii10038
ENCODING 196
SWIDTH 781 0
DWIDTH 15 0
BBX 14 14 1 0
BITMAP
01C0
01C0
0FF0
3FF8
7BBC
739C
E39C
E71C
E738
F778
7FF0
3FC0
0E00
0E00
ENDCHAR

STARTCHAR afii10039
ENCODING 197
SWIDTH 667 0
DWIDTH 13 0
BBX 16 14 -1 0
BITMAP
1C0F
1C1E
0E3C
0E78
07F0
07E0
03C0
03C0
07E0
0FE0
1E70
3C70
7838
F038
ENDCHAR

STARTCHAR afii10040
ENCODING 198
SWIDTH 729 0
DWIDTH 14 0
BBX 14 18 1 -4
BITMAP
1C1C
1C1C
1C1C
3838
3838
3838
3838
7070
7070
7070
E0E0
E0E0
FFF0
FFF0
01C0
01C0
01C0
01C0
ENDCHAR

STARTCHAR afii10041
ENCODING 199
SWIDTH 645 0
DWIDTH 12 0
BBX 12 14 1 0
BITMAP
7070
7070
E070
E0E0
E0E0
E0E0
F1E0
7FC0
3FC0
01C0
01C0
0380
0380
0380
ENDCHAR

STARTCHAR afii10042
ENCODING 200
SWIDTH 979 0
DWIDTH 18 0
BBX 18 14 1 0
BITMAP
1C71C0
1C71C0
1C71C0
38E380
38E380
38E380
39C700
71C700
71C700
71C700
E38E00
E38E00
FFFE00
FFFE00
ENDCHAR

STARTCHAR afii10043
ENCODING 201
SWIDTH 989 0
DWIDTH 18 0
BBX 18 17 1 -3
BITMAP
1C71C0
1C71C0
1C71C0
38E380
38E380
38E380
39C700
71C700
71C700
71C700
E38E00
E38E00
FFFF00
FFFF00
001C00
001C00
001C00
ENDCHAR

STARTCHAR afii10044
ENCODING 202
SWIDTH 854 0
DWIDTH 16 0
BBX 14 14 1 0
BITMAP
FF00
FF00
0700
0E00
0E00
0FF0
0FF8
1C3C
1C1C
1C1C
381C
3838
3FF8
3FE0
ENDCHAR

STARTCHAR afii10045
ENCODING 203
SWIDTH 1000 0
DWIDTH 19 0
BBX 19 14 1 0
BITMAP
1C00E0
1C00E0
1C00E0
3801C0
3801C0
3801C0
7FC1C0
7FE380
70F380
707380
E07700
E0F700
FFE700
FFC700
ENDCHAR

STARTCHAR afii10046
ENCODING 204
SWIDTH 706 0
DWIDTH 13 0
BBX 12 14 1 0
BITMAP
1C00
1C00
1C00
3800
3800
3800
3FC0
7FE0
70F0
7070
E070
E0F0
FFE0
FF80
ENDCHAR

STARTCHAR afii10047
ENCODING 205
SWIDTH 719 0
DWIDTH 14 0
BBX 12 14 2 0
BITMAP
1F80
3FE0
78E0
6070
0070
0070
07F0
07F0
0070
0070
C0E0
F1E0
7FC0
3F00
ENDCHAR

STARTCHAR afii10048
ENCODING 206
SWIDTH 1041 0
DWIDTH 20 0
BBX 19 14 1 0
BITMAP
1C1F00
1C7FC0
1CF3C0
39E1E0
39C0E0
3BC0E0
3F80E0
7F80E0
7381E0
7381C0
71C3C0
E1E780
E0FF00
E03C00
ENDCHAR

STARTCHAR afii10049
ENCODING 207
SWIDTH 729 0
DWIDTH 14 0
BBX 15 14 0 0
BITMAP
07FE
0FFE
1E0E
1C0E
1C1C
1E1C
0FFC
03FC
0738
0E38
1C38
3870
7870
F070
ENDCHAR

STARTCHAR afii10065
ENCODING 208
SWIDTH 556 0
DWIDTH 11 0
BBX 10 10 1 0
BITMAP
1F80
3FC0
71C0
01C0
3FC0
7F80
E380
E780
7F80
3B80
ENDCHAR

STARTCHAR afii10066
ENCODING 209
SWIDTH 619 0
DWIDTH 12 0
BBX 12 14 1 0
BITMAP
03F0
0FE0
1C00
3000
7F80
7FC0
F1E0
E0E0
E0E0
E0E0
E1C0
73C0
7F80
1E00
ENDCHAR

STARTCHAR afii10067
ENCODING 210
SWIDTH 589 0
DWIDTH 11 0
BBX 9 10 1 0
BITMAP
1F00
7F80
6180
E380
FE00
FF00
E380
6380
7F00
1E00
ENDCHAR

STARTCHAR afii10068
ENCODING 211
SWIDTH 534 0
DWIDTH 11 0
BBX 10 10 1 0
BITMAP
1F00
3F80
31C0
03C0
1F80
7E00
F000
E380
7F00
3E00
ENDCHAR

STARTCHAR afii10069
ENCODING 212
SWIDTH 618 0
DWIDTH 12 0
BBX 11 14 1 0
BITMAP
0780
0FC0
00E0
0060
0F60
3FE0
71E0
60E0
E0E0
E0E0
E0C0
F1C0
7F80
3E00
ENDCHAR

STARTCHAR afii10070
ENCODING 213
SWIDTH 556 0
DWIDTH 11 0
BBX 10 10 1 0
BITMAP
0F00
3F80
71C0
61C0
FFC0
FFC0
E000
F1C0
7F80
3F00
ENDCHAR

STARTCHAR afii10072
ENCODING 214
SWIDTH 736 0
DWIDTH 14 0
BBX 16 10 -1 0
BITMAP
38CF
18CC
0CD8
0DF0
07E0
1DB0
3BB0
3338
7318
E31C
ENDCHAR

STARTCHAR afii10073
ENCODING 215
SWIDTH 510 0
DWIDTH 9 0
BBX 8 10 1 0
BITMAP
3E
7F
63
03
1E
1E
07
C7
FE
3C
ENDCHAR

STARTCHAR afii10074
ENCODING 216
SWIDTH 611 0
DWIDTH 12 0
BBX 11 10 1 0
BITMAP
38E0
38E0
38E0
71C0
71C0
71C0
E3C0
E780
FF80
7B80
ENDCHAR

STARTCHAR afii10075
ENCODING 217
SWIDTH 611 0
DWIDTH 12 0
BBX 11 13 1 0
BITMAP
1980
0F00
0000
38E0
38E0
38E0
71C0
71C0
71C0
E3C0
E780
FF80
7B80
ENDCHAR

STARTCHAR afii10076
ENCODING 218
SWIDTH 507 0
DWIDTH 10 0
BBX 10 10 1 0
BITMAP
38C0
39C0
3B80
7700
7C00
7E00
7700
E700
E380
E3C0
ENDCHAR

STARTCHAR afii10077
ENCODING 219
SWIDTH 622 0
DWIDTH 12 0
BBX 13 10 -1 0
BITMAP
0FF8
0FF8
0E38
0E70
1C70
1C70
1C70
38E0
F8E0
F0E0
ENDCHAR

STARTCHAR afii10078
ENCODING 220
SWIDTH 740 0
DWIDTH 15 0
BBX 14 10 1 0
BITMAP
383C
387C
387C
7CF8
6CD8
6DD8
6FB0
CF30
C730
C630
ENDCHAR

STARTCHAR afii10079
ENCODING 221
SWIDTH 604 0
DWIDTH 12 0
BBX 11 10 1 0
BITMAP
38E0
38E0
38E0
71C0
7FC0
7FC0
71C0
E380
E380
E380
ENDCHAR

STARTCHAR afii10080
ENCODING 222
SWIDTH 611 0
DWIDTH 12 0
BBX 11 10 1 0
BITMAP
0F80
3FC0
71E0
60E0
E0E0
E0E0
E0C0
F1C0
7F80
3E00
ENDCHAR

STARTCHAR afii10081
ENCODING 223
SWIDTH 604 0
DWIDTH 12 0
BBX 11 10 1 0
BITMAP
3FE0
3FE0
38E0
71C0
71C0
71C0
71C0
E380
E380
E380
ENDCHAR

STARTCHAR afii10082
ENCODING 224
SWIDTH 611 0
DWIDTH 12 0
BBX 12 14 0 -4
BITMAP
1DC0
1FE0
1EF0
3C70
3870
3870
3870
78E0
7FC0
7700
7000
E000
E000
E000
ENDCHAR

STARTCHAR afii10083
ENCODING 225
SWIDTH 556 0
DWIDTH 11 0
BBX 10 10 1 0
BITMAP
0F80
3FC0
78C0
7000
E000
E000
E180
E380
7F00
3E00
ENDCHAR

STARTCHAR afii10084
ENCODING 226
SWIDTH 889 0
DWIDTH 16 0
BBX 15 10 1 0
BITMAP
3BBC
3FFE
39CE
71CE
739C
739C
739C
E738
E738
E738
ENDCHAR

STARTCHAR afii10085
ENCODING 227
SWIDTH 556 0
DWIDTH 11 0
BBX 11 14 1 -4
BITMAP
70E0
70E0
71C0
71C0
3B80
3B00
3B00
1E00
1E00
1C00
1C00
3800
F000
E000
ENDCHAR

STARTCHAR afii10086
ENCODING 228
SWIDTH 885 0
DWIDTH 17 0
BBX 16 18 1 -4
BITMAP
0060
0060
00E0
00C0
1EDC
3FFE
73E7
61C7
E187
E187
E386
E3CE
7FFC
3B78
0300
0700
0600
0600
ENDCHAR

STARTCHAR afii10087
ENCODING 229
SWIDTH 556 0
DWIDTH 11 0
BBX 12 10 0 0
BITMAP
3870
38E0
1DC0
1F80
0F00
0F00
1F80
3B80
71C0
E1C0
ENDCHAR

STARTCHAR afii10088
ENCODING 230
SWIDTH 646 0
DWIDTH 12 0
BBX 11 13 1 -3
BITMAP
38E0
38E0
38E0
71C0
71C0
71C0
E380
E780
FF80
7BC0
01C0
0380
0380
ENDCHAR

STARTCHAR afii10089
ENCODING 231
SWIDTH 583 0
DWIDTH 11 0
BBX 10 10 1 0
BITMAP
71C0
E1C0
E1C0
E380
FF80
7F80
0380
0700
0700
0700
ENDCHAR

STARTCHAR afii10090
ENCODING 232
SWIDTH 889 0
DWIDTH 16 0
BBX 15 10 1 0
BITMAP
39CE
39CE
39CE
739C
739C
739C
E71C
E738
FFF8
7BB8
ENDCHAR

STARTCHAR afii10091
ENCODING 233
SWIDTH 935 0
DWIDTH 16 0
BBX 15 13 1 -3
BITMAP
39CE
39CE
39CE
739C
739C
739C
E71C
E738
FFFC
7BBC
001C
0038
0038
ENDCHAR

STARTCHAR afii10092
ENCODING 234
SWIDTH 694 0
DWIDTH 13 0
BBX 12 10 1 0
BITMAP
FC00
FC00
1C00
3800
3FE0
3FF0
3870
7070
7FE0
7FC0
ENDCHAR

STARTCHAR afii10093
ENCODING 235
SWIDTH 836 0
DWIDTH 17 0
BBX 16 10 1 0
BITMAP
3807
3807
3807
700E
7F8E
7FCE
71CE
E1DC
FF9C
FF1C
ENDCHAR

STARTCHAR afii10094
ENCODING 236
SWIDTH 582 0
DWIDTH 11 0
BBX 10 10 1 0
BITMAP
3800
3800
3800
7000
7F80
7FC0
71C0
E1C0
FF80
FF00
ENDCHAR

STARTCHAR afii10095
ENCODING 237
SWIDTH 552 0
DWIDTH 11 0
BBX 10 10 1 0
BITMAP
1F00
3F80
7380
01C0
0FC0
0FC0
C380
E380
7F00
3E00
ENDCHAR

STARTCHAR afii10096
ENCODING 238
SWIDTH 860 0
DWIDTH 16 0
BBX 15 10 1 0
BITMAP
3878
39FC
3B8E
730E
7F0E
7F0E
770C
E71C
E3F8
E1E0
ENDCHAR

STARTCHAR afii10097
ENCODING 239
SWIDTH 589 0
DWIDTH 11 0
BBX 11 10 0 0
BITMAP
1FE0
3FE0
70E0
71C0
3FC0
1FC0
39C0
7380
E380
C380
ENDCHAR

STARTCHAR afii61352
ENCODING 240
SWIDTH 1146 0
DWIDTH 22 0
BBX 21 14 1 0
BITMAP
1C1C00
1C1C00
1E1CF0
3E39F8
3E3B98
3B3B18
3B3B18
737338
71F3F0
71F1E0
E1F000
E0E3F0
E0E7E0
E0E000
ENDCHAR

STARTCHAR afii10071
ENCODING 241
SWIDTH 556 0
DWIDTH 11 0
BBX 10 14 1 0
BITMAP
39C0
39C0
0000
0000
0F00
3F80
71C0
61C0
FFC0
FFC0
E000
F1C0
7F80
3F00
ENDCHAR

STARTCHAR afii10099
ENCODING 242
SWIDTH 611 0
DWIDTH 12 0
BBX 11 18 1 -4
BITMAP
1C00
1C00
3F00
1C00
3BC0
3FE0
3CE0
38E0
71C0
71C0
71C0
E380
E380
E380
0700
0700
1F00
1E00
ENDCHAR

STARTCHAR afii10100
ENCODING 243
SWIDTH 489 0
DWIDTH 9 0
BBX 10 14 1 0
BITMAP
0700
0600
0C00
0000
3FC0
3FC0
3800
7000
7000
7000
7000
E000
E000
E000
ENDCHAR

STARTCHAR afii10101
ENCODING 244
SWIDTH 563 0
DWIDTH 11 0
BBX 10 10 1 0
BITMAP
1F00
3F80
71C0
60C0
FC00
FC00
E180
E380
7F00
3E00
ENDCHAR

STARTCHAR afii10102
ENCODING 245
SWIDTH 556 0
DWIDTH 11 0
BBX 10 10 1 0
BITMAP
1F00
3F80
71C0
7800
3E00
1F00
0780
E380
7F00
3E00
ENDCHAR

STARTCHAR afii10103
ENCODING 246
SWIDTH 278 0
DWIDTH 6 0
BBX 6 14 1 0
BITMAP
1C
1C
1C
00
38
38
38
70
70
70
70
E0
E0
E0
ENDCHAR

STARTCHAR afii10104
ENCODING 247
SWIDTH 278 0
DWIDTH 6 0
BBX 8 14 1 0
BITMAP
77
77
00
00
38
38
38
70
70
70
70
E0
E0
E0
ENDCHAR

STARTCHAR afii10105
ENCODING 248
SWIDTH 278 0
DWIDTH 6 0
BBX 9 18 -2 -4
BITMAP
0380
0380
0380
0000
0700
0700
0700
0E00
0E00
0E00
0E00
1C00
1C00
1C00
1C00
3800
F800
F000
ENDCHAR

STARTCHAR afii10106
ENCODING 249
SWIDTH 933 0
DWIDTH 18 0
BBX 18 10 0 0
BITMAP
0FF000
0FF000
0E7000
0EE000
1CFF80
1CFFC0
1CE1C0
39C1C0
F9FF80
F1FF00
ENDCHAR

STARTCHAR afii10107
ENCODING 250
SWIDTH 887 0
DWIDTH 17 0
BBX 16 10 1 0
BITMAP
38E0
38E0
38E0
71C0
7FFE
7FFF
71C7
E387
E3FE
E3FC
ENDCHAR

STARTCHAR afii10108
ENCODING 251
SWIDTH 611 0
DWIDTH 12 0
BBX 11 14 1 0
BITMAP
1C00
1C00
3F80
1C00
3BC0
3FE0
3CE0
38E0
71C0
71C0
71C0
E380
E380
E380
ENDCHAR

STARTCHAR afii10109
ENCODING 252
SWIDTH 507 0
DWIDTH 10 0
BBX 10 14 1 0
BITMAP
0380
0300
0600
0000
38C0
39C0
3B80
7700
7C00
7E00
7700
E380
E380
E1C0
ENDCHAR

STARTCHAR section
ENCODING 253
SWIDTH 556 0
DWIDTH 11 0
BBX 11 18 0 -4
BITMAP
0780
0FC0
1CE0
1860
1C00
3E00
7700
6380
61C0
70C0
38C0
1F80
0F80
0700
C300
E700
7E00
3C00
ENDCHAR

STARTCHAR afii10110
ENCODING 254
SWIDTH 556 0
DWIDTH 11 0
BBX 11 17 0 -4
BITMAP
0CC0
0780
0000
70E0
70E0
71C0
71C0
3B80
3B00
3F00
1E00
1E00
1C00
1C00
3800
F000
E000
ENDCHAR

STARTCHAR afii10193
ENCODING 255
SWIDTH 611 0
DWIDTH 12 0
BBX 11 13 1 -3
BITMAP
38E0
38E0
38E0
71C0
71C0
71C0
E3C0
E780
FF80
7B80
3000
3000
3000
ENDCHAR
ENDFONT
